<svg xmlns="http://www.w3.org/2000/svg" width="1024" height="1024" viewBox="0 0 1024 1024">
<g>
<path d="M 944.01 948.25 C944.00,949.18 82.59,949.26 81.67,948.33 C80.83,947.50 80.80,396.34 81.63,393.24 C82.01,391.84 87.05,387.48 94.87,381.81 C101.82,376.77 113.35,368.30 120.50,362.98 C153.59,338.38 164.07,330.61 180.51,318.50 C190.22,311.35 212.41,294.90 229.83,281.93 C262.89,257.33 290.68,236.74 297.50,231.80 C299.70,230.20 306.77,224.98 313.21,220.20 C339.47,200.69 349.72,193.13 354.00,190.12 C356.48,188.38 360.35,185.51 362.61,183.73 C369.85,178.05 381.08,169.65 397.00,158.01 C405.52,151.78 414.08,145.48 416.00,144.00 C417.92,142.52 423.37,138.43 428.11,134.91 C432.84,131.38 444.27,122.88 453.51,116.00 C473.34,101.24 492.14,87.30 495.99,84.50 C497.51,83.40 501.80,80.14 505.52,77.25 C509.25,74.36 513.02,72.00 513.90,72.00 C516.22,72.01 520.64,74.90 535.91,86.40 C543.38,92.03 555.12,100.84 562.00,105.98 C568.88,111.12 576.08,116.54 578.00,118.03 C584.29,122.91 805.09,288.02 830.62,306.93 C860.20,328.85 890.13,351.10 921.25,374.31 L 944.00 391.28 L 944.18 653.39 C944.33,870.78 944.30,922.20 944.01,948.25 ZM 504.50 714.37 C510.67,715.32 526.27,713.93 532.33,711.89 C540.03,709.29 544.39,706.73 555.00,698.54 C559.67,694.93 568.00,688.53 573.50,684.31 C579.00,680.10 589.80,671.64 597.50,665.51 C605.20,659.38 621.40,646.68 633.50,637.29 C645.60,627.91 659.55,617.03 664.50,613.11 C678.43,602.11 683.45,598.19 698.00,586.99 C705.42,581.28 715.55,573.40 720.50,569.50 C725.45,565.59 738.72,555.20 750.00,546.40 C761.28,537.61 780.55,522.56 792.84,512.96 C805.13,503.36 816.41,494.60 817.90,493.50 C819.38,492.40 829.74,484.30 840.92,475.50 C852.09,466.70 863.09,458.08 865.37,456.34 C882.69,443.11 896.42,431.75 898.97,428.53 C901.42,425.45 902.00,423.78 902.00,419.77 C902.00,416.97 901.29,413.60 900.36,412.04 C897.09,406.50 888.78,403.78 882.91,406.32 C881.04,407.13 867.97,416.95 853.88,428.15 C839.79,439.34 824.78,451.20 820.51,454.50 C816.24,457.80 807.07,465.00 800.13,470.51 C787.31,480.66 764.30,498.67 733.50,522.66 C724.15,529.94 716.05,535.92 715.50,535.95 C714.84,535.98 714.33,488.14 714.00,395.25 L 713.50 254.50 L 710.29 247.73 C703.92,234.28 689.94,224.25 674.50,222.04 C665.17,220.71 354.74,220.64 346.61,221.98 C334.34,223.99 321.36,232.60 315.48,242.63 C314.63,244.08 313.90,245.15 313.27,246.27 C309.53,253.02 309.51,261.85 309.30,367.67 C309.29,375.70 309.27,384.29 309.25,393.47 C309.08,474.60 308.59,530.81 308.04,531.36 C307.20,532.20 303.23,529.47 286.47,516.50 C272.44,505.64 267.43,501.72 254.50,491.48 C246.80,485.38 234.05,475.47 226.16,469.45 C218.28,463.43 203.88,452.28 194.16,444.68 C184.45,437.08 174.48,429.30 172.00,427.39 C169.52,425.48 162.86,420.30 157.19,415.88 C143.03,404.85 138.92,403.34 131.49,406.44 C124.66,409.30 121.72,419.75 125.85,426.52 C126.86,428.18 133.27,433.89 140.10,439.20 C146.92,444.51 163.30,457.26 176.50,467.54 C189.70,477.81 202.75,487.97 205.50,490.13 C208.25,492.28 219.73,501.21 231.00,509.97 C242.27,518.73 256.45,529.76 262.50,534.47 C275.53,544.62 301.86,565.07 314.50,574.86 C319.45,578.69 328.45,585.69 334.50,590.42 C340.55,595.14 354.02,605.65 364.43,613.76 C374.84,621.86 386.72,631.20 390.83,634.50 C394.94,637.80 401.27,642.77 404.90,645.55 C408.53,648.33 424.10,660.45 439.50,672.49 C476.26,701.24 483.60,706.76 487.91,708.92 C492.14,711.05 500.26,713.71 504.50,714.37 ZM 522.57 684.50 C517.12,686.16 512.59,686.26 506.42,684.87 C502.14,683.90 492.46,676.96 464.90,655.09 C456.87,648.71 448.81,642.38 446.99,641.00 C439.68,635.47 406.30,609.39 390.00,596.47 C383.67,591.45 375.31,584.90 371.41,581.92 C348.05,564.06 338.91,556.48 338.45,554.61 C338.17,553.45 338.07,487.25 338.22,407.50 C338.50,264.34 338.53,262.46 340.51,259.08 C341.61,257.20 343.64,255.34 345.01,254.96 C346.38,254.57 350.88,253.27 355.00,252.07 L 362.50 249.89 L 517.50 250.20 L 672.50 250.50 L 676.63 252.87 C678.91,254.17 681.72,256.93 682.89,259.01 L 685.01 262.78 L 684.50 560.45 L 665.00 575.71 C633.35,600.50 620.79,610.14 619.54,610.62 C618.70,610.94 618.47,609.42 618.74,605.29 C619.03,600.72 618.67,598.80 617.03,596.19 C613.36,590.34 611.28,590.00 579.14,590.00 C553.69,590.00 550.14,589.81 549.61,588.42 C549.27,587.55 549.00,582.61 549.00,577.44 L 549.00 568.04 L 551.75 567.44 C574.04,562.63 586.86,556.17 602.18,542.05 C619.94,525.66 630.33,505.17 633.12,481.00 C636.62,450.65 626.84,421.91 605.88,400.95 C602.10,397.16 599.00,393.63 599.00,393.09 C599.00,392.56 601.61,388.83 604.80,384.81 C637.27,343.91 637.48,343.61 636.70,337.77 C636.03,332.83 635.31,332.12 616.53,318.00 C608.85,312.23 596.93,303.05 590.03,297.60 C589.11,296.87 588.22,296.17 587.37,295.49 C577.68,287.81 572.42,283.63 567.47,283.98 C561.12,284.42 555.29,292.30 541.36,309.77 C530.99,322.79 519.77,336.82 516.44,340.97 C476.18,391.05 461.09,410.09 459.22,413.12 C454.75,420.39 457.06,425.01 470.12,434.95 C474.86,438.55 487.93,448.53 499.16,457.12 C520.93,473.76 524.41,476.00 528.50,476.00 C534.50,476.00 535.84,474.67 555.21,449.37 C560.32,442.70 567.65,433.14 571.50,428.13 C575.35,423.11 579.02,419.01 579.66,419.01 C581.98,418.99 592.87,432.22 596.35,439.28 C601.10,448.91 602.97,457.43 602.97,469.50 C602.98,480.72 601.62,486.94 597.03,496.75 C586.60,519.05 567.55,533.87 545.36,536.96 C519.90,540.50 502.45,533.62 483.89,512.73 C479.38,507.65 474.30,502.71 472.61,501.75 C469.00,499.70 460.65,499.45 457.03,501.28 C453.26,503.19 450.00,508.72 450.00,513.20 C450.00,517.97 451.70,521.38 458.72,530.73 C471.70,548.02 492.67,562.04 511.96,566.32 L 517.50 567.55 L 517.50 589.50 L 486.45 590.00 C452.13,590.55 452.14,590.55 447.90,597.30 C445.32,601.41 445.72,609.81 448.69,613.79 C449.48,614.85 450.03,615.73 450.73,616.47 C454.16,620.03 461.29,620.03 518.68,620.05 C522.29,620.06 526.11,620.06 530.13,620.06 C570.51,620.08 604.13,620.46 604.85,620.90 C606.05,621.65 600.89,625.94 570.43,649.50 C567.59,651.70 559.57,658.00 552.62,663.50 C530.82,680.74 527.63,682.97 522.57,684.50 ZM 532.31 429.94 C528.56,434.58 525.05,438.48 524.50,438.62 C523.95,438.75 520.35,436.39 516.50,433.37 C512.65,430.35 506.46,425.59 502.75,422.80 C499.04,420.01 496.02,417.00 496.04,416.11 C496.05,415.23 501.12,408.17 507.29,400.43 C547.60,349.84 570.26,322.00 571.13,322.00 C573.01,322.00 576.27,324.21 587.64,333.19 C593.89,338.13 599.00,342.62 599.00,343.17 C599.00,343.72 595.31,348.97 590.80,354.83 C573.59,377.22 538.83,421.86 532.31,429.94 ZM 430.50 364.61 C437.40,366.29 441.59,366.26 448.54,364.46 C459.14,361.72 468.32,354.02 474.13,343.00 C476.19,339.09 476.50,337.11 476.50,328.00 C476.50,318.55 476.22,316.94 473.73,311.86 C470.23,304.73 462.97,297.38 456.47,294.38 C448.76,290.82 438.30,289.66 430.41,291.48 C417.77,294.42 410.49,300.19 404.76,311.84 C401.81,317.83 401.50,319.31 401.50,327.48 C401.51,335.51 401.86,337.23 404.64,343.12 C410.08,354.62 418.64,361.73 430.50,364.61 ZM 785.95 834.70 C792.40,837.76 801.71,834.91 804.72,828.97 C806.40,825.66 806.33,819.53 804.57,816.14 C803.14,813.38 795.05,806.82 768.00,786.48 C760.03,780.49 749.00,772.16 743.50,767.98 C738.00,763.80 729.67,757.47 725.00,753.91 C720.33,750.36 714.87,746.45 712.88,745.22 C703.43,739.42 691.99,745.70 692.00,756.70 C692.01,762.44 694.86,766.06 706.15,774.66 C720.31,785.46 758.09,814.23 771.95,824.78 C778.25,829.58 784.55,834.04 785.95,834.70 ZM 227.50 835.10 C229.70,836.12 231.95,836.96 232.50,836.97 C236.26,837.03 241.90,833.95 251.17,826.77 C257.03,822.22 266.87,814.67 273.02,810.00 C279.18,805.33 287.69,798.80 291.94,795.50 C296.19,792.20 305.00,785.45 311.52,780.50 C328.15,767.86 330.82,765.34 332.12,760.99 C334.72,752.31 329.23,744.09 320.31,743.29 C320.20,743.28 320.09,743.27 319.99,743.26 C319.14,743.18 318.42,743.11 317.70,743.14 C313.79,743.30 310.00,746.28 284.98,765.50 C272.80,774.85 254.89,788.50 245.17,795.84 C235.45,803.17 226.03,810.58 224.23,812.30 C216.80,819.41 218.44,830.90 227.50,835.10 ZM 398.50 508.48 C404.71,510.78 416.28,509.95 422.56,506.74 C440.22,497.72 445.08,474.70 432.38,460.19 C425.81,452.68 418.68,449.49 408.50,449.53 C398.46,449.56 391.91,452.25 385.68,458.91 C379.83,465.16 377.60,471.89 378.21,481.44 C379.01,493.85 386.69,504.09 398.50,508.48 ZM 411.18 573.31 C416.77,575.29 419.52,575.27 424.90,573.20 C430.11,571.19 435.44,564.25 436.48,558.14 C438.43,546.56 428.03,535.00 415.66,535.00 C409.26,535.00 400.22,543.02 398.45,550.27 C398.08,551.79 398.10,555.62 398.49,558.77 C399.10,563.66 399.77,565.03 403.03,568.14 C405.14,570.15 408.80,572.47 411.18,573.31 ZM 389.10 418.34 C393.48,420.64 395.41,421.09 399.32,420.73 C409.12,419.82 416.50,411.43 416.35,401.36 C416.27,395.25 414.07,390.98 408.83,386.75 C405.87,384.36 403.94,383.69 398.83,383.30 C390.36,382.66 384.62,385.56 381.19,392.21 C377.41,399.57 377.30,403.66 380.75,410.03 C383.13,414.45 384.74,416.04 389.10,418.34 ZM 444.68 344.94 C441.06,346.31 434.07,346.25 431.50,344.84 C428.31,343.08 423.94,338.73 422.41,335.80 C421.63,334.31 421.00,330.75 421.00,327.89 C421.00,314.30 434.01,306.19 446.62,311.91 C455.34,315.87 459.36,326.48 455.21,334.56 C452.77,339.30 448.52,343.49 444.68,344.94 ZM 416.58 487.75 C413.73,490.36 412.19,491.00 408.74,491.00 C403.82,491.00 400.64,489.13 398.49,484.99 C394.17,476.63 399.79,467.00 409.00,467.00 C420.20,467.00 424.97,480.06 416.58,487.75 ZM 401.00 406.00 C399.90,407.10 398.10,408.00 397.00,408.00 C395.90,408.00 394.10,407.10 393.00,406.00 C391.90,404.90 391.00,403.10 391.00,402.00 C391.00,400.90 391.90,399.10 393.00,398.00 C394.10,396.90 395.90,396.00 397.00,396.00 C398.10,396.00 399.90,396.90 401.00,398.00 C402.10,399.10 403.00,400.90 403.00,402.00 C403.00,403.10 402.10,404.90 401.00,406.00 ZM 421.00 560.00 C419.90,561.10 418.10,562.00 417.00,562.00 C414.42,562.00 411.00,558.58 411.00,556.00 C411.00,553.42 414.42,550.00 417.00,550.00 C419.58,550.00 423.00,553.42 423.00,556.00 C423.00,557.10 422.10,558.90 421.00,560.00 ZM 563.35 260.01 C567.08,261.51 571.68,261.08 574.14,259.00 C576.46,257.04 576.46,256.97 574.56,255.50 C572.02,253.54 565.05,253.58 562.21,255.57 C559.73,257.30 560.09,258.69 563.35,260.01 Z" fill="rgb(0,0,0)"/>
<path d="M 563.35 260.01 C560.09,258.69 559.73,257.30 562.21,255.57 C565.05,253.58 572.02,253.54 574.56,255.50 C576.46,256.97 576.46,257.04 574.14,259.00 C571.68,261.08 567.08,261.51 563.35,260.01 ZM 361.04 573.94 C349.76,565.21 341.88,558.92 340.25,557.31 L 338.00 555.09 L 338.01 410.80 C338.01,313.19 338.35,265.28 339.06,262.72 C339.24,262.06 339.50,261.38 339.82,260.69 C338.51,265.47 338.46,283.41 338.22,407.50 C338.07,487.25 338.17,553.45 338.45,554.61 C338.84,556.18 345.29,561.73 361.04,573.94 ZM 341.67 257.48 C343.66,254.62 346.36,252.10 348.75,251.11 C349.30,250.88 352.89,250.70 360.23,250.56 L 355.00 252.07 C350.88,253.27 346.38,254.57 345.01,254.96 C344.04,255.23 342.74,256.24 341.67,257.48 Z" fill="rgb(79,79,79)"/>
<path d="M 0.00 512.00 L 0.00 0.00 L 512.00 0.00 L 1024.00 0.00 L 1024.00 512.00 L 1024.00 1024.00 L 512.00 1024.00 L 0.00 1024.00 L 0.00 512.00 ZM 944.01 948.25 C944.30,922.20 944.33,870.78 944.18,653.39 L 944.00 391.28 L 921.25 374.31 C890.13,351.10 860.20,328.85 830.62,306.93 C805.09,288.02 584.29,122.91 578.00,118.03 C576.08,116.54 568.88,111.12 562.00,105.98 C555.12,100.84 543.38,92.03 535.91,86.40 C520.64,74.90 516.22,72.01 513.90,72.00 C513.02,72.00 509.25,74.36 505.52,77.25 C501.80,80.14 497.51,83.40 495.99,84.50 C492.14,87.30 473.34,101.24 453.51,116.00 C444.27,122.88 432.84,131.38 428.11,134.91 C423.37,138.43 417.92,142.52 416.00,144.00 C414.08,145.48 405.52,151.78 397.00,158.01 C381.08,169.65 369.85,178.05 362.61,183.73 C360.35,185.51 356.48,188.38 354.00,190.12 C349.72,193.13 339.47,200.69 313.21,220.20 C306.77,224.98 299.70,230.20 297.50,231.80 C290.68,236.74 262.89,257.33 229.83,281.93 C212.41,294.90 190.22,311.35 180.51,318.50 C164.07,330.61 153.59,338.38 120.50,362.98 C113.35,368.30 101.82,376.77 94.87,381.81 C87.05,387.48 82.01,391.84 81.63,393.24 C80.80,396.34 80.83,947.50 81.67,948.33 C82.59,949.26 944.00,949.18 944.01,948.25 ZM 227.50 835.10 C218.44,830.90 216.80,819.41 224.23,812.30 C226.03,810.58 235.45,803.17 245.17,795.84 C254.89,788.50 272.80,774.85 284.98,765.50 C315.13,742.34 314.46,742.76 320.31,743.29 C329.23,744.09 334.72,752.31 332.12,760.99 C330.82,765.34 328.15,767.86 311.52,780.50 C305.00,785.45 296.19,792.20 291.94,795.50 C287.69,798.80 279.18,805.33 273.02,810.00 C266.87,814.67 257.03,822.22 251.17,826.77 C241.90,833.95 236.26,837.03 232.50,836.97 C231.95,836.96 229.70,836.12 227.50,835.10 ZM 785.95 834.70 C784.55,834.04 778.25,829.58 771.95,824.78 C758.09,814.23 720.31,785.46 706.15,774.66 C694.86,766.06 692.01,762.44 692.00,756.70 C691.99,745.70 703.43,739.42 712.88,745.22 C714.87,746.45 720.33,750.36 725.00,753.91 C729.67,757.47 738.00,763.80 743.50,767.98 C749.00,772.16 760.03,780.49 768.00,786.48 C795.05,806.82 803.14,813.38 804.57,816.14 C806.33,819.53 806.40,825.66 804.72,828.97 C801.71,834.91 792.40,837.76 785.95,834.70 ZM 504.50 714.37 C500.26,713.71 492.14,711.05 487.91,708.92 C483.60,706.76 476.26,701.24 439.50,672.49 C424.10,660.45 408.53,648.33 404.90,645.55 C401.27,642.77 394.94,637.80 390.83,634.50 C386.72,631.20 374.84,621.86 364.43,613.76 C354.02,605.65 340.55,595.14 334.50,590.42 C328.45,585.69 319.45,578.69 314.50,574.86 C301.86,565.07 275.53,544.62 262.50,534.47 C256.45,529.76 242.27,518.73 231.00,509.97 C219.73,501.21 208.25,492.28 205.50,490.13 C202.75,487.97 189.70,477.81 176.50,467.54 C163.30,457.26 146.92,444.51 140.10,439.20 C133.27,433.89 126.86,428.18 125.85,426.52 C121.72,419.75 124.66,409.30 131.49,406.44 C138.92,403.34 143.03,404.85 157.19,415.88 C162.86,420.30 169.52,425.48 172.00,427.39 C174.48,429.30 184.45,437.08 194.16,444.68 C203.88,452.28 218.28,463.43 226.16,469.45 C234.05,475.47 246.80,485.38 254.50,491.48 C267.43,501.72 272.44,505.64 286.47,516.50 C303.23,529.47 307.20,532.20 308.04,531.36 C308.59,530.81 309.08,474.60 309.25,393.47 C309.57,243.00 309.14,253.44 315.48,242.63 C321.36,232.60 334.34,223.99 346.61,221.98 C354.74,220.64 665.17,220.71 674.50,222.04 C689.94,224.25 703.92,234.28 710.29,247.73 L 713.50 254.50 L 714.00 395.25 C714.33,488.14 714.84,535.98 715.50,535.95 C716.05,535.92 724.15,529.94 733.50,522.66 C764.30,498.67 787.31,480.66 800.13,470.51 C807.07,465.00 816.24,457.80 820.51,454.50 C824.78,451.20 839.79,439.34 853.88,428.15 C867.97,416.95 881.04,407.13 882.91,406.32 C888.78,403.78 897.09,406.50 900.36,412.04 C901.29,413.60 902.00,416.97 902.00,419.77 C902.00,423.78 901.42,425.45 898.97,428.53 C896.42,431.75 882.69,443.11 865.37,456.34 C863.09,458.08 852.09,466.70 840.92,475.50 C829.74,484.30 819.38,492.40 817.90,493.50 C816.41,494.60 805.13,503.36 792.84,512.96 C780.55,522.56 761.28,537.61 750.00,546.40 C738.72,555.20 725.45,565.59 720.50,569.50 C715.55,573.40 705.42,581.28 698.00,586.99 C683.45,598.19 678.43,602.11 664.50,613.11 C659.55,617.03 645.60,627.91 633.50,637.29 C621.40,646.68 605.20,659.38 597.50,665.51 C589.80,671.64 579.00,680.10 573.50,684.31 C568.00,688.53 559.67,694.93 555.00,698.54 C544.39,706.73 540.03,709.29 532.33,711.89 C526.27,713.93 510.67,715.32 504.50,714.37 ZM 522.57 684.50 C527.63,682.97 530.82,680.74 552.62,663.50 C559.57,658.00 567.59,651.70 570.43,649.50 C600.89,625.94 606.05,621.65 604.85,620.90 C604.13,620.46 570.51,620.08 530.13,620.06 C449.11,620.01 453.58,620.36 448.69,613.79 C445.72,609.81 445.32,601.41 447.90,597.30 C452.14,590.55 452.13,590.55 486.45,590.00 L 517.50 589.50 L 517.50 578.52 L 517.50 567.55 L 511.96 566.32 C492.67,562.04 471.70,548.02 458.72,530.73 C451.70,521.38 450.00,517.97 450.00,513.20 C450.00,508.72 453.26,503.19 457.03,501.28 C460.65,499.45 469.00,499.70 472.61,501.75 C474.30,502.71 479.38,507.65 483.89,512.73 C502.45,533.62 519.90,540.50 545.36,536.96 C567.55,533.87 586.60,519.05 597.03,496.75 C601.62,486.94 602.98,480.72 602.97,469.50 C602.97,457.43 601.10,448.91 596.35,439.28 C592.87,432.22 581.98,418.99 579.66,419.01 C579.02,419.01 575.35,423.11 571.50,428.13 C567.65,433.14 560.32,442.70 555.21,449.37 C535.84,474.67 534.50,476.00 528.50,476.00 C524.41,476.00 520.93,473.76 499.16,457.12 C487.93,448.53 474.86,438.55 470.12,434.95 C457.06,425.01 454.75,420.39 459.22,413.12 C461.09,410.09 476.18,391.05 516.44,340.97 C519.77,336.82 530.99,322.79 541.36,309.77 C567.12,277.47 565.17,277.96 590.03,297.60 C596.93,303.05 608.85,312.23 616.53,318.00 C635.31,332.12 636.03,332.83 636.70,337.77 C637.48,343.61 637.27,343.91 604.80,384.81 C601.61,388.83 599.00,392.56 599.00,393.09 C599.00,393.63 602.10,397.16 605.88,400.95 C626.84,421.91 636.62,450.65 633.12,481.00 C630.33,505.17 619.94,525.66 602.18,542.05 C586.86,556.17 574.04,562.63 551.75,567.44 L 549.00 568.04 L 549.00 577.44 C549.00,582.61 549.27,587.55 549.61,588.42 C550.14,589.81 553.69,590.00 579.14,590.00 C611.28,590.00 613.36,590.34 617.03,596.19 C618.67,598.80 619.03,600.72 618.74,605.29 C618.47,609.42 618.70,610.94 619.54,610.62 C620.79,610.14 633.35,600.50 665.00,575.71 L 684.50 560.45 L 684.75 411.61 L 685.01 262.78 L 682.89 259.01 C681.72,256.93 678.91,254.17 676.63,252.87 L 672.50 250.50 L 512.00 250.24 C393.78,250.04 350.77,250.27 348.75,251.11 C344.92,252.69 340.31,258.22 339.06,262.72 C338.35,265.28 338.01,313.19 338.01,410.80 L 338.00 555.09 L 340.25 557.31 C342.35,559.38 354.74,569.17 371.41,581.92 C375.31,584.90 383.67,591.45 390.00,596.47 C406.30,609.39 439.68,635.47 446.99,641.00 C448.81,642.38 456.87,648.71 464.90,655.09 C492.46,676.96 502.14,683.90 506.42,684.87 C512.59,686.26 517.12,686.16 522.57,684.50 ZM 532.31 429.94 C538.83,421.86 573.59,377.22 590.80,354.83 C595.31,348.97 599.00,343.72 599.00,343.17 C599.00,342.62 593.89,338.13 587.64,333.19 C576.27,324.21 573.01,322.00 571.13,322.00 C570.26,322.00 547.60,349.84 507.29,400.43 C501.12,408.17 496.05,415.23 496.04,416.11 C496.02,417.00 499.04,420.01 502.75,422.80 C506.46,425.59 512.65,430.35 516.50,433.37 C520.35,436.39 523.95,438.75 524.50,438.62 C525.05,438.48 528.56,434.58 532.31,429.94 ZM 411.18 573.31 C408.80,572.47 405.14,570.15 403.03,568.14 C399.77,565.03 399.10,563.66 398.49,558.77 C398.10,555.62 398.08,551.79 398.45,550.27 C400.22,543.02 409.26,535.00 415.66,535.00 C428.03,535.00 438.43,546.56 436.48,558.14 C435.44,564.25 430.11,571.19 424.90,573.20 C419.52,575.27 416.77,575.29 411.18,573.31 ZM 421.00 560.00 C422.10,558.90 423.00,557.10 423.00,556.00 C423.00,553.42 419.58,550.00 417.00,550.00 C414.42,550.00 411.00,553.42 411.00,556.00 C411.00,558.58 414.42,562.00 417.00,562.00 C418.10,562.00 419.90,561.10 421.00,560.00 ZM 398.50 508.48 C386.69,504.09 379.01,493.85 378.21,481.44 C377.60,471.89 379.83,465.16 385.68,458.91 C391.91,452.25 398.46,449.56 408.50,449.53 C418.68,449.49 425.81,452.68 432.38,460.19 C445.08,474.70 440.22,497.72 422.56,506.74 C416.28,509.95 404.71,510.78 398.50,508.48 ZM 416.58 487.75 C424.97,480.06 420.20,467.00 409.00,467.00 C399.79,467.00 394.17,476.63 398.49,484.99 C400.64,489.13 403.82,491.00 408.74,491.00 C412.19,491.00 413.73,490.36 416.58,487.75 ZM 389.10 418.34 C384.74,416.04 383.13,414.45 380.75,410.03 C377.30,403.66 377.41,399.57 381.19,392.21 C384.62,385.56 390.36,382.66 398.83,383.30 C403.94,383.69 405.87,384.36 408.83,386.75 C414.07,390.98 416.27,395.25 416.35,401.36 C416.50,411.43 409.12,419.82 399.32,420.73 C395.41,421.09 393.48,420.64 389.10,418.34 ZM 401.00 406.00 C402.10,404.90 403.00,403.10 403.00,402.00 C403.00,400.90 402.10,399.10 401.00,398.00 C399.90,396.90 398.10,396.00 397.00,396.00 C395.90,396.00 394.10,396.90 393.00,398.00 C391.90,399.10 391.00,400.90 391.00,402.00 C391.00,403.10 391.90,404.90 393.00,406.00 C394.10,407.10 395.90,408.00 397.00,408.00 C398.10,408.00 399.90,407.10 401.00,406.00 ZM 430.50 364.61 C418.64,361.73 410.08,354.62 404.64,343.12 C401.86,337.23 401.51,335.51 401.50,327.48 C401.50,319.31 401.81,317.83 404.76,311.84 C410.49,300.19 417.77,294.42 430.41,291.48 C438.30,289.66 448.76,290.82 456.47,294.38 C462.97,297.38 470.23,304.73 473.73,311.86 C476.22,316.94 476.50,318.55 476.50,328.00 C476.50,337.11 476.19,339.09 474.13,343.00 C468.32,354.02 459.14,361.72 448.54,364.46 C441.59,366.26 437.40,366.29 430.50,364.61 ZM 444.68 344.94 C448.52,343.49 452.77,339.30 455.21,334.56 C459.36,326.48 455.34,315.87 446.62,311.91 C434.01,306.19 421.00,314.30 421.00,327.89 C421.00,330.75 421.63,334.31 422.41,335.80 C423.94,338.73 428.31,343.08 431.50,344.84 C434.07,346.25 441.06,346.31 444.68,344.94 Z" fill="rgb(254,254,254)"/>
</g>
</svg>
