<?xml version="1.0" standalone="no"?>
<!DOCTYPE svg PUBLIC "-//W3C//DTD SVG 20010904//EN"
 "http://www.w3.org/TR/2001/REC-SVG-20010904/DTD/svg10.dtd">
<svg version="1.0" xmlns="http://www.w3.org/2000/svg"
 width="1024.000000pt" height="1024.000000pt" viewBox="0 0 1024.000000 1024.000000"
 preserveAspectRatio="xMidYMid meet">
<metadata>
Created by potrace 1.16, written by Peter Selinger 2001-2019
</metadata>
<g transform="translate(0.000000,1024.000000) scale(0.100000,-0.100000)"
fill="#000000" stroke="none">
<path d="M4935 9387 c-105 -78 -278 -207 -385 -287 -107 -79 -316 -235 -465
-345 -148 -111 -367 -273 -485 -361 -118 -88 -406 -301 -640 -474 -234 -173
-537 -397 -675 -500 -137 -102 -360 -267 -495 -367 -135 -100 -321 -238 -415
-307 -93 -69 -261 -194 -372 -276 l-203 -151 0 -2779 0 -2780 4320 0 4320 0 0
2778 0 2778 -27 26 c-26 24 -235 180 -1055 787 -189 140 -968 724 -1733 1296
-1389 1041 -1476 1105 -1492 1105 -4 0 -94 -65 -198 -143z m1848 -1372 c128
-33 241 -114 300 -215 59 -102 57 -36 57 -1547 0 -761 2 -1383 5 -1383 5 0
343 262 760 589 127 100 295 231 374 293 79 62 226 178 325 257 100 79 195
152 211 162 86 54 205 -20 205 -126 0 -38 -27 -97 -55 -120 -69 -56 -700 -551
-1040 -816 -236 -185 -504 -393 -595 -464 -740 -577 -1647 -1285 -1750 -1365
-190 -148 -274 -183 -440 -183 -111 0 -201 20 -279 64 -30 17 -158 112 -285
212 -127 99 -265 207 -306 239 -93 73 -138 108 -370 290 -102 79 -725 564
-1385 1077 -660 513 -1216 949 -1236 970 -68 70 -59 166 20 218 39 26 102 30
142 10 14 -8 86 -61 160 -119 74 -57 345 -269 604 -470 259 -201 560 -435 670
-521 110 -86 203 -157 208 -157 4 0 7 616 7 1369 0 1313 1 1372 19 1430 26 83
60 137 123 198 61 57 113 87 191 108 80 21 3276 22 3360 0z m312 -5209 c19 -8
137 -93 262 -187 126 -95 328 -249 451 -341 131 -100 228 -181 237 -198 21
-40 19 -99 -5 -137 -27 -46 -73 -66 -132 -61 -45 5 -70 22 -381 256 -645 488
-612 458 -605 550 5 60 40 106 93 121 42 13 42 13 80 -3z m-3815 -34 c51 -50
60 -99 32 -157 -17 -35 -61 -73 -247 -216 -230 -177 -290 -222 -502 -385 -65
-50 -134 -101 -153 -113 -73 -44 -176 -17 -206 54 -32 77 -6 135 94 210 36 28
242 184 456 348 l389 297 50 0 c44 0 54 -4 87 -38z"/>
<path d="M3475 7721 c-40 -24 -71 -60 -84 -94 -8 -20 -11 -478 -11 -1490 l0
-1462 38 -26 c31 -23 1234 -961 1479 -1155 112 -88 160 -109 248 -108 112 2
74 -23 611 399 l318 250 -760 5 c-549 4 -765 8 -779 17 -11 6 -31 23 -45 38
-22 23 -25 36 -25 96 0 66 1 70 38 106 l37 38 320 3 320 3 0 114 c0 108 -1
115 -20 115 -11 0 -62 13 -113 30 -177 57 -350 183 -473 347 -94 125 -102 183
-35 253 46 49 94 59 157 35 35 -13 64 -38 124 -107 90 -104 157 -158 255 -204
177 -85 391 -80 583 13 108 53 231 176 290 289 99 193 108 411 23 598 -29 65
-102 165 -154 214 l-25 23 -211 -274 c-183 -238 -217 -277 -252 -291 -75 -30
-81 -26 -509 303 -52 40 -123 94 -157 120 -71 53 -93 85 -93 134 0 30 48 94
408 543 224 280 455 571 515 645 110 139 134 159 190 159 41 0 42 -1 319 -215
128 -99 255 -197 284 -217 86 -62 103 -129 52 -201 -23 -34 -242 -314 -316
-405 l-43 -54 83 -86 c210 -218 301 -484 268 -782 -47 -430 -364 -782 -777
-863 l-58 -12 -3 -112 -3 -113 301 0 c335 0 340 -1 380 -66 19 -30 22 -44 16
-95 l-6 -60 118 90 c64 50 214 166 332 259 l215 168 0 1495 0 1496 -28 36
c-16 21 -46 46 -67 57 -39 20 -61 20 -1642 20 -1546 0 -1604 -1 -1633 -19z
m1080 -420 c75 -37 147 -110 183 -189 23 -49 27 -70 27 -152 0 -85 -3 -101
-29 -155 -144 -292 -557 -290 -694 3 -24 50 -27 70 -27 157 0 89 3 106 27 155
49 99 152 184 255 210 21 5 73 8 117 6 62 -3 91 -11 141 -35z m-502 -907 c45
-23 66 -44 88 -86 22 -44 25 -115 5 -161 -29 -71 -129 -127 -199 -111 -51 10
-104 41 -126 72 -90 127 -3 301 152 302 26 0 62 -7 80 -16z m141 -661 c60 -22
128 -80 163 -141 22 -36 28 -61 31 -129 4 -78 3 -88 -28 -149 -92 -187 -326
-230 -487 -90 -95 83 -127 243 -71 352 33 62 114 137 171 157 59 21 161 21
221 0z m65 -872 c19 -10 48 -34 65 -55 41 -50 49 -142 17 -205 -69 -135 -274
-134 -340 1 -83 172 90 345 258 259z"/>
<path d="M4298 7120 c-67 -36 -106 -116 -93 -192 10 -56 85 -133 140 -144 78
-14 164 28 201 98 21 39 18 122 -6 168 -41 81 -157 114 -242 70z"/>
<path d="M3934 6282 c-21 -13 -36 -54 -30 -79 7 -27 57 -53 88 -45 24 6 48 40
48 69 0 45 -68 81 -106 55z"/>
<path d="M4006 5536 c-32 -29 -36 -39 -36 -82 0 -56 17 -87 60 -109 68 -35
146 -3 170 70 25 75 -34 155 -115 155 -36 0 -50 -6 -79 -34z"/>
<path d="M4143 4748 c-51 -25 -51 -90 1 -123 67 -44 133 64 70 114 -30 23 -39
24 -71 9z"/>
<path d="M5330 6559 c-206 -258 -376 -474 -378 -479 -3 -9 271 -223 291 -227
7 -2 92 100 189 225 509 652 565 727 556 739 -13 16 -258 204 -272 208 -6 3
-180 -207 -386 -466z"/>
</g>
</svg>
